<svg xmlns="http://www.w3.org/2000/svg" viewBox="0 0 561 183" width="100%" height="auto"
  preserveAspectRatio="xMidYMid meet" fill="none">
  <rect width="37" height="183" fill="currentColor" />
  <rect x="140" width="37" height="183" fill="currentColor" />
  <rect x="35" y="35" width="37" height="36" fill="currentColor" />
  <rect x="71" y="70" width="36" height="36" fill="currentColor" />
  <rect x="106" y="35" width="35" height="36" fill="currentColor" />
  <rect x="203" y="3" width="36" height="145" fill="currentColor" />
  <rect x="326" y="3" width="36" height="145" fill="currentColor" />
  <rect x="238" y="147" width="89" height="36" fill="currentColor" />
  <rect x="385" y="4" width="37" height="37" fill="currentColor" />
  <rect x="420" y="40" width="37" height="36" fill="currentColor" />
  <rect x="455" y="75" width="36" height="36" fill="currentColor" />
  <rect x="490" y="40" width="36" height="36" fill="currentColor" />
  <rect x="525" y="5" width="36" height="36" fill="currentColor" />
  <rect x="490" y="110" width="36" height="36" fill="currentColor" />
  <rect x="525" y="145" width="36" height="37" fill="currentColor" />
  <rect x="420" y="110" width="37" height="36" fill="currentColor" />
  <rect x="385" y="145" width="37" height="37" fill="currentColor" />
</svg>
